# xmcd
#
# Track frame offsets: 
#        150
#        13632
#        26006
#        41839
#        56159
#        69607
#        83015
#        95589
#        110254
#        124359
#        137668
#        152165
#        164716
#        178375
#        192900
#        206246
#
# Disc length: 2906 seconds
#
# Revision: 0
# Processed by: cddbd v1.5.2PL0 Copyright (c) Steve Scherf et al.
# Submitted via: ExactAudioCopy v0.95a5
#
DISCID=ef0b5810
DTITLE=Hooker, John Lee - Burning Hell
DYEAR=2003
DGENRE=Blues
TTITLE0=Welfare Blues (1950)
TTITLE1=Rollin' Blues (1950)
TTITLE2=Hey Baby (1952)
TTITLE3=Boogie Chillen (1948)
TTITLE4=Union Blues (1951)
TTITLE5=Ground Hog Blues (1951)
TTITLE6=Boogie Chillen No. 2 (1950)
TTITLE7=Sugar Mama (1952)
TTITLE8=Worried Life Blues (1952)
TTITLE9=Walkin' The Boogie (1952)
TTITLE10=Sally Mae (1948)
TTITLE11=Canal Street Blues (1950)
TTITLE12=Love Blues (1952)
TTITLE13=Blues For Big Town (1952)
TTITLE14=Down At The Landing (1952)
TTITLE15=Howlin' Wolf (1949)
EXTD=
EXTT0=
EXTT1=
EXTT2=
EXTT3=
EXTT4=
EXTT5=
EXTT6=
EXTT7=
EXTT8=
EXTT9=
EXTT10=
EXTT11=
EXTT12=
EXTT13=
EXTT14=
EXTT15=
PLAYORDER=
